<?xml version="1.0" encoding="utf-8"?>
<!-- Generator: Adobe Illustrator 16.0.0, SVG Export Plug-In . SVG Version: 6.00 Build 0)  -->
<!DOCTYPE svg PUBLIC "-//W3C//DTD SVG 1.1//EN" "http://www.w3.org/Graphics/SVG/1.1/DTD/svg11.dtd">
<svg version="1.1" id="Halloranns_xA0_Image_1_" xmlns="http://www.w3.org/2000/svg" xmlns:xlink="http://www.w3.org/1999/xlink"
	 x="0px" y="0px" width="250px" height="50px" viewBox="38.5 58.5 681.5 101" enable-background="new 38.5 58.5 681.5 101"
	 xml:space="preserve">
<g>
	<path fill="#FFFFFF" d="M160.395,97.943c10.37,0,20.486,0,30.703,0c0-4.236,0.148-8.37-0.052-12.487
		c-0.135-2.78-1.53-5.014-4.185-6.262c-0.287-0.135-0.563-0.302-0.816-0.493c-0.113-0.085-0.154-0.265-0.291-0.518
		c0.628-1.238,1.945-1.25,3.035-1.319c6.86-0.437,13.728-0.526,20.591-0.044c0.876,0.062,1.733,0.405,3.056,0.73
		c-0.742,0.747-1.045,1.202-1.469,1.446c-0.758,0.436-1.608,0.708-2.387,1.111c-1.707,0.883-2.678,2.292-2.652,4.231
		c0.076,5.754,0.232,11.507,0.299,17.262c0.039,3.353-0.004,6.708-0.061,10.062c-0.088,5.19-0.319,10.379-0.303,15.569
		c0.014,4.461,0.283,8.922,0.455,13.383c0.03,0.798,0.084,1.601,0.211,2.388c0.415,2.568,1.759,4.396,4.256,5.339
		c0.835,0.315,1.604,0.808,2.542,1.29c-1.173,1.713-2.708,1.957-4.166,1.968c-6.716,0.052-13.433,0.004-20.149-0.057
		c-0.714-0.006-1.425-0.33-2.715-0.649c0.963-0.836,1.417-1.353,1.977-1.697c2.452-1.508,3.692-3.596,3.646-6.545
		c-0.075-4.716,0.015-9.435,0.02-14.153c0.004-4.711,0.055-9.424-0.038-14.133c-0.065-3.32-0.338-6.636-0.525-10.093
		c-10.162,0-20.289,0-30.635,0c-0.079,0.534-0.251,1.133-0.243,1.73c0.045,3.35,0.204,6.699,0.179,10.048
		c-0.014,1.903-0.483,3.809-0.438,5.706c0.162,6.789,0.448,13.576,0.702,20.362c0.114,3.046,1.604,5.092,4.494,6.13
		c0.94,0.338,2.095,0.544,1.992,2.116c-1.193,0.967-2.713,1.191-4.195,1.229c-4.142,0.109-8.286,0.094-12.43,0.112
		c-2.157,0.01-4.315,0.005-6.472-0.029c-1.144-0.019-2.414,0.277-3.407-1.242c0.742-0.53,1.374-1.099,2.104-1.48
		c1.785-0.932,2.746-2.4,3.019-4.342c0.167-1.184,0.344-2.379,0.344-3.57c0-4.238-0.103-8.477-0.111-12.715
		c-0.006-3.033,0.19-6.069,0.098-9.098c-0.181-5.907-0.554-11.809-0.744-17.716c-0.129-3.994-0.077-7.994-0.118-11.991
		c-0.012-1.119-0.039-2.239-0.105-3.356c-0.177-2.967-1.153-5.457-4.056-6.828c-0.463-0.219-0.818-0.666-1.294-1.066
		c0.682-1.358,1.872-1.348,2.926-1.393c3.993-0.167,7.989-0.325,11.985-0.35c2.957-0.018,5.915,0.181,8.872,0.272
		c0.951,0.029,1.917-0.012,2.628,0.891c-0.188,1.301-1.205,1.685-2.177,1.953c-2.853,0.785-3.944,2.709-3.913,5.536
		C160.428,89.33,160.395,93.477,160.395,97.943z"/>
	<path fill="#FFFFFF" d="M548.377,150.47c-1.163,0.538-1.861,1.045-2.624,1.176c-1.49,0.257-3.017,0.41-4.529,0.417
		c-4.559,0.022-9.117-0.021-13.677-0.091c-1.717-0.027-3.464-0.071-5.294-1.25c0.944-0.499,1.622-0.844,2.288-1.209
		c2.262-1.243,3.667-3.051,3.736-5.726c0.035-1.359,0.112-2.719,0.088-4.077c-0.145-7.59-0.303-15.179-0.48-22.768
		c-0.066-2.869-0.186-5.736-0.304-8.603c-0.104-2.544-0.72-4.892-2.614-6.763c-0.308-0.303-0.416-0.808-0.649-1.29
		c0.376-0.321,0.634-0.636,0.966-0.81c2.332-1.224,4.646-2.487,7.032-3.601c2.163-1.011,4.409-1.846,6.618-2.763
		c0.295-0.122,0.575-0.28,0.871-0.401c2.318-0.946,2.862-0.624,3.062,1.816c0.07,0.876,0.096,1.758,0.201,2.631
		c0.064,0.539,0.244,1.063,0.356,1.535c1.196,0.552,2.134,0.186,3.057-0.359c3.538-2.09,7.42-2.661,11.465-3.012
		c4.233-0.368,7.801,1.175,11.398,2.889c0.705,0.336,1.411,0.82,1.912,1.41c3.093,3.635,5.54,7.596,6.22,12.461
		c1,7.155,1.239,14.315,0.568,21.517c-0.207,2.22-0.114,4.473-0.072,6.708c0.016,0.786,0.221,1.588,0.454,2.347
		c0.565,1.835,1.818,3.045,3.819,2.947c2.221-0.109,2.699,0.85,1.712,2.794c-1.014,1.997-2.474,3.193-4.87,3.264
		c-3.059,0.09-6.071,0.089-8.996-0.972c-4.247-1.54-6.726-4.417-7.055-9.031c-0.329-4.623-0.848-9.235-1.064-13.862
		c-0.235-5.027-0.05-10.077-0.393-15.094c-0.165-2.42-1.044-4.81-1.745-7.171c-0.521-1.756-1.902-2.706-3.649-3.13
		c-3.883-0.943-9.445,1.072-11.813,4.309c-1.521,2.079-2.186,4.386-1.939,6.993c0.224,2.373,0.352,4.762,0.376,7.146
		c0.071,6.707,0.047,13.415,0.112,20.122c0.011,1.189,0.19,2.392,0.433,3.559c0.44,2.124,1.41,3.9,3.558,4.797
		C547.253,149.47,547.521,149.793,548.377,150.47z"/>
	<path fill="#FFFFFF" d="M612.993,150.69c-0.777,0.35-1.443,0.799-2.169,0.943c-1.25,0.247-2.536,0.415-3.809,0.419
		c-5.039,0.017-10.078-0.005-15.114-0.098c-1.481-0.027-3.017-0.112-4.601-1.219c0.753-0.422,1.323-0.762,1.91-1.067
		c2.638-1.375,4.163-3.443,4.044-6.518c-0.114-2.951-0.313-5.9-0.37-8.852c-0.08-4.153-0.028-8.308-0.094-12.461
		c-0.074-4.709-0.178-9.419-0.338-14.126c-0.078-2.301-0.8-4.382-2.478-6.077c-0.347-0.351-0.458-0.935-0.779-1.633
		c2.763-1.427,5.339-2.849,7.994-4.101c2.232-1.053,4.559-1.907,6.843-2.85c0.517-0.213,1.02-0.47,1.551-0.635
		c1.377-0.429,1.924-0.109,2.124,1.326c0.229,1.647,0.369,3.306,0.536,4.858c1.251,0.658,2.194,0.315,3.12-0.232
		c3.535-2.092,7.411-2.68,11.456-3.048c4.238-0.385,7.807,1.153,11.406,2.862c0.774,0.367,1.535,0.916,2.094,1.562
		c3.353,3.886,5.686,8.247,6.301,13.451c0.734,6.213,0.83,12.435,0.55,18.672c-0.104,2.312-0.359,4.623-0.356,6.934
		c0.002,1.339,0.244,2.718,0.622,4.007c0.584,1.989,1.566,2.622,3.679,2.739c2.405,0.134,2.808,0.875,1.718,2.987
		c-1.05,2.032-2.59,3.062-4.951,3.136c-3.146,0.1-6.238,0.051-9.21-1.123c-3.702-1.462-6.15-3.95-6.556-8.092
		c-0.103-1.034-0.237-2.064-0.334-3.098c-0.746-7.961-0.759-15.952-0.987-23.934c-0.097-3.381-0.586-6.677-1.927-9.823
		c-0.795-1.866-2.151-2.921-4.11-3.275c-6.061-1.097-12.195,2.889-13.291,8.653c-0.117,0.623-0.164,1.27-0.15,1.904
		c0.146,7.183,0.311,14.366,0.475,21.548c0.064,2.796,0.047,5.6,0.239,8.388c0.202,2.927,1.164,5.49,4.199,6.7
		c0.14,0.056,0.263,0.188,0.356,0.312C612.678,149.954,612.724,150.112,612.993,150.69z"/>
	<path fill="#FFFFFF" d="M514.945,148.661c0.264,1.491-0.711,2.166-1.722,2.584c-1.465,0.605-3.002,1.095-4.554,1.417
		c-1.477,0.306-3.01,0.444-4.521,0.458c-2.356,0.023-3.983-1.42-5.433-3.074c-0.684-0.779-1.261-1.652-1.96-2.416
		c-0.771-0.842-1.658-1.103-2.781-0.501c-2.037,1.092-4.141,2.064-6.198,3.119c-5.967,3.057-12.183,3.631-18.246,0.792
		c-4.169-1.952-6.929-5.404-7.688-10.284c-0.866-5.566,0.389-10.55,3.812-14.858c2.592-3.261,6.255-4.781,10.474-4.955
		c5.5-0.227,11.039,0.079,16.47-1.189c2.022-0.472,2.615-0.945,2.741-3.005c0.28-4.615-0.221-9.159-2.328-13.314
		c-1.721-3.394-4.774-5.063-8.557-5.292c-3.53-0.213-6.116,1.582-8.163,4.212c-1.062,1.364-1.146,2.942-0.155,4.482
		c0.389,0.604,0.769,1.224,1.055,1.879c0.914,2.101,0.522,4.104-1.106,5.708c-0.568,0.559-1.188,1.076-1.833,1.543
		c-2.414,1.747-4.751,1.909-7.132,0.326c-2.259-1.502-2.717-3.876-2.426-6.346c0.145-1.233,0.61-2.523,1.262-3.586
		c3.495-5.712,8.017-10.256,14.911-11.47c4.185-0.737,8.441-0.665,12.629,0.278c1.714,0.386,3.416,0.842,5.1,1.349
		c3.73,1.124,5.941,4.006,7.687,7.185c1.454,2.649,2.521,5.516,2.738,8.613c0.062,0.874,0.144,1.782,0.436,2.596
		c1.309,3.638,1.086,7.407,1.045,11.158c-0.056,5.036-0.19,10.071-0.235,15.107c-0.011,1.19,0.183,2.387,0.33,3.574
		c0.259,2.057,1.246,3.421,3.485,3.576C514.371,148.346,514.65,148.542,514.945,148.661z M495.227,132.797
		c0.021-0.001,0.043-0.003,0.065-0.004c0-1.833,0.023-3.667-0.006-5.499c-0.038-2.35-0.569-2.962-2.798-2.799
		c-3.349,0.245-6.645,0.876-9.72,2.28c-0.831,0.379-1.72,1.001-2.183,1.757c-2.19,3.58-2.652,7.481-1.491,11.49
		c0.261,0.9,1.036,1.88,1.85,2.35c2.721,1.574,5.663,2.131,8.715,0.951c1.261-0.487,2.462-1.125,3.698-1.676
		c1.676-0.748,2.335-2.052,2.194-3.843C495.422,136.137,495.334,134.466,495.227,132.797z"/>
	<path fill="#FFFFFF" d="M269.584,148.509c0.577,1.397-0.318,2.105-1.215,2.537c-1.356,0.653-2.799,1.223-4.268,1.523
		c-1.79,0.366-3.652,0.62-5.469,0.549c-2.192-0.086-3.804-1.487-5.175-3.118c-0.718-0.854-1.393-1.746-2.149-2.563
		c-0.667-0.72-1.461-0.846-2.386-0.371c-1.987,1.02-4.04,1.916-6.003,2.977c-6.081,3.285-12.429,3.883-18.661,0.968
		c-4.076-1.907-6.773-5.304-7.583-10.083c-0.944-5.575,0.289-10.546,3.664-14.889c2.616-3.366,6.331-4.922,10.644-5.089
		c5.501-0.212,11.039,0.049,16.469-1.204c1.93-0.446,2.499-0.891,2.638-2.823c0.337-4.696-0.16-9.319-2.314-13.546
		c-1.731-3.397-4.824-5.028-8.596-5.234c-3.522-0.192-6.108,1.618-8.133,4.269c-1.054,1.379-1.092,2.961-0.09,4.484
		c0.351,0.533,0.69,1.082,0.956,1.66c0.977,2.126,0.581,4.298-1.088,5.919c-0.571,0.555-1.191,1.071-1.839,1.534
		c-2.404,1.716-4.728,1.79-7.147,0.269c-1.634-1.027-2.878-4.159-2.377-6.394c0.277-1.232,0.661-2.515,1.317-3.576
		c3.472-5.613,7.9-10.137,14.708-11.37c4.43-0.802,8.91-0.718,13.324,0.366c0.854,0.209,1.686,0.53,2.549,0.67
		c5.029,0.816,7.97,4.213,10.07,8.42c1.312,2.627,2.365,5.424,2.467,8.455c0.021,0.634,0.089,1.297,0.297,1.89
		c1.529,4.349,1.092,8.823,1.012,13.298c-0.096,5.349-0.125,10.71,0.131,16.051C265.491,147.312,266.176,147.744,269.584,148.509z
		 M233.315,136.008c-0.041,0.006-0.081,0.012-0.121,0.018c0.187,1.257,0.184,2.584,0.617,3.749c0.363,0.978,1.055,2.066,1.916,2.582
		c2.621,1.572,5.506,2.124,8.485,1.052c1.419-0.51,2.77-1.216,4.136-1.865c1.459-0.693,2.083-1.9,2.035-3.485
		c-0.108-3.661-0.214-7.322-0.329-10.983c-0.067-2.141-0.61-2.777-2.758-2.566c-2.208,0.217-4.419,0.621-6.569,1.176
		c-5.134,1.326-7.23,4.058-7.411,9.366C233.306,135.37,233.315,135.689,233.315,136.008z"/>
	<path fill="#FFFFFF" d="M402.484,124.924c-0.277,11.492-6.469,19.252-16.062,24.564c-3.688,2.042-7.845,3.079-12.25,2.298
		c-2.82-0.5-5.688-0.74-8.541-1.051c-1.88-0.205-3.577-0.841-5.052-2.008c-2.751-2.177-5.684-4.179-8.154-6.641
		c-2.614-2.603-4.482-5.801-4.924-9.626c-0.064-0.552-0.182-1.104-0.334-1.638c-1.99-7.001-1.195-13.885,1.819-20.303
		c2.595-5.526,7.059-9.544,12.598-12.335c4.18-2.106,8.654-2.857,13.2-3.02c3.769-0.135,7.467,0.842,10.91,2.391
		c4.048,1.822,7.531,4.489,10.46,7.85c0.263,0.301,0.545,0.599,0.735,0.944C400.094,112.13,402.747,118.081,402.484,124.924z
		 M360.858,119.782c0.61,10.163,4.373,18.529,12.278,24.914c5.063,4.089,10.361,3.317,13.778-2.229
		c0.497-0.808,0.921-1.692,1.201-2.596c0.928-3.005,1.364-6.076,0.846-9.217c-0.505-3.061-0.999-6.125-1.576-9.173
		c-1.14-6.018-3.803-11.319-7.755-15.971c-1.628-1.917-3.653-3.213-6.055-4.121c-3.15-1.191-6.727-0.064-8.453,3.039
		C362.443,109.243,360.916,114.403,360.858,119.782z"/>
	<path fill="#FFFFFF" d="M69.671,100.856c9.922,0,19.581,0,29.406,0c0.073,0.676,0.197,1.287,0.197,1.897
		c0.003,14.155,0.001,28.31-0.03,42.464c-0.003,1.272-0.137,2.556-0.339,3.814c-0.22,1.373-1.021,2.219-2.448,2.606
		c-8.254,2.242-16.428,2.05-24.573-0.561c-1.446-0.463-2.055-1.4-2.212-2.773c-0.072-0.634-0.086-1.277-0.086-1.917
		c-0.017-14.554-0.029-29.109-0.036-43.663C69.549,102.178,69.618,101.633,69.671,100.856z"/>
	<path fill="#FFFFFF" d="M691.749,152.387c-4.55,0.386-8.739-0.955-12.856-2.532c-4.74-1.816-7.632-5.346-9.049-10.173
		c-1.039-3.538,0.729-9.142,4.483-10.618c2.479-0.975,6.56-0.16,8.449,1.728c1.389,1.387,1.911,6.383,0.502,8.172
		c-0.595,0.752-1.188,1.505-1.74,2.288c-1.69,2.396-1.167,4.4,1.478,5.626c1.306,0.604,2.617,1.197,3.955,1.72
		c3.512,1.371,7.06,1.311,10.539-0.037c7.461-2.89,6.938-11.02,2.961-14.368c-2.672-2.248-5.345-4.18-8.936-4.792
		c-2.163-0.368-4.282-1.309-6.277-2.286c-2.79-1.367-5.535-2.871-8.138-4.563c-3.506-2.279-5.636-5.639-6.454-9.728
		c-0.539-2.695,0.276-5.271,1.463-7.64c1.413-2.821,3.309-5.292,6.346-6.612c0.364-0.159,0.701-0.382,1.044-0.588
		c7.305-4.409,15.066-4.277,22.886-1.973c6.111,1.801,9.206,6.557,10.688,12.457c0.233,0.927-0.008,2.101-0.376,3.022
		c-0.668,1.677-1.072,3.586-2.724,4.678c-2.181,1.442-4.629,1.487-6.898,0.526c-2.684-1.137-4.592-3.106-4.848-6.291
		c-0.145-1.802,0.389-3.13,2.043-3.942c0.215-0.105,0.421-0.229,0.631-0.344c2.699-1.493,3.102-3.258,0.699-5.161
		c-3.158-2.501-6.804-3.891-10.92-2.36c-1.189,0.442-2.359,1.017-3.424,1.706c-4.765,3.084-4.986,8.787-0.513,12.237
		c0.567,0.438,1.159,0.878,1.807,1.173c4.426,2.022,8.616,4.544,13.315,5.991c3.85,1.185,7.396,3.003,10.305,5.904
		c2.475,2.469,3.731,5.387,3.098,8.873c-1.614,8.854-7.229,14.22-15.491,16.904C697.271,152.203,694.44,152.079,691.749,152.387z"/>
	<path fill="#FFFFFF" d="M411.85,150.222c0.487-0.366,0.934-0.817,1.471-1.084c2.485-1.232,3.646-3.33,3.748-5.979
		c0.127-3.271,0.073-6.549,0.092-9.824c0.006-1.117,0.032-2.236-0.023-3.352c-0.182-3.658-0.434-7.313-0.587-10.973
		c-0.142-3.351-0.264-6.706-0.254-10.059c0.008-2.418-0.619-4.541-2.068-6.481c-1.287-1.723-1.154-1.876,0.714-3.075
		c2.903-1.863,5.86-3.531,9.297-4.274c1.131-0.245,2.146-1.022,3.214-1.562c0.565-0.287,1.098-0.691,1.696-0.859
		c1.644-0.459,2.469,0.15,2.437,1.877c-0.033,1.755-0.244,3.506-0.359,5.26c-0.052,0.796-0.196,1.621-0.047,2.383
		c0.107,0.549,0.555,1.328,0.994,1.441c0.562,0.145,1.464-0.084,1.876-0.496c1.124-1.125,1.989-2.507,3.104-3.646
		c1.498-1.534,3.074-3.004,4.724-4.375c1.456-1.211,3.243-1.609,5.135-1.724c3.25-0.196,5.812,0.854,7.394,3.805
		c2.38,4.443,2.835,9.58-1.01,13.24c-2.232,2.126-4.845,2.835-7.727,1.806c-2.594-0.926-4.066-2.921-4.513-5.677
		c-0.414-2.558-1.473-2.967-3.525-1.262c-3.564,2.958-5.312,6.916-5.911,11.424c-1.111,8.369-0.337,16.739,0.104,25.102
		c0.149,2.872,1.034,5.497,3.807,7.067c0.396,0.225,0.877,1.028,0.75,1.291c-0.228,0.475-0.838,0.943-1.369,1.067
		c-3.13,0.73-6.298,0.887-9.519,0.661c-3.812-0.268-7.64-0.29-11.456-0.479c-0.717-0.036-1.419-0.363-2.128-0.555
		C411.886,150.683,411.868,150.452,411.85,150.222z"/>
	<path fill="#FFFFFF" d="M337.954,151.172c-1.16,0.263-1.817,0.518-2.483,0.545c-3.031,0.122-6.068,0.292-9.101,0.229
		c-2.945-0.061-6.622-3.296-7.521-6.582c-0.394-1.438-0.483-2.987-0.523-4.49c-0.078-2.944-0.03-5.892-0.022-8.837
		c0.015-5.195,0.104-10.39,0.042-15.583c-0.084-7.026-0.3-14.05-0.417-21.076c-0.027-1.672,0.22-3.352,0.151-5.02
		c-0.093-2.304-0.197-4.631-0.627-6.886c-0.226-1.18-1.131-2.241-1.779-3.325c-0.312-0.524-0.741-0.979-1.203-1.577
		c0.509-0.36,0.857-0.656,1.249-0.874c1.184-0.659,2.376-1.299,3.577-1.925c0.989-0.515,1.97-1.055,2.996-1.487
		c2.713-1.142,5.457-2.21,8.172-3.347c1.696-0.71,2.698-0.174,2.673,1.675c-0.067,5.031-0.319,10.06-0.331,15.09
		c-0.01,5.031,0.21,10.062,0.277,15.093c0.049,3.669,0.072,7.34,0,11.008c-0.074,3.748-0.424,7.494-0.394,11.239
		c0.044,5.506,0.239,11.014,0.542,16.512c0.095,1.725,0.586,3.475,1.186,5.108c0.391,1.063,1.281,1.952,1.991,2.886
		C336.758,150.009,337.206,150.394,337.954,151.172z"/>
	<path fill="#FFFFFF" d="M301.938,151.146c-1.13,0.281-1.719,0.533-2.317,0.557c-3.112,0.123-6.23,0.311-9.34,0.237
		c-2.934-0.069-6.595-3.371-7.46-6.652c-0.381-1.443-0.457-2.99-0.496-4.494c-0.074-2.864-0.025-5.731-0.022-8.598
		c0.003-2.717,0.015-5.434,0.02-8.15c0.013-7.351,0.045-14.702,0.021-22.053c-0.005-1.675-0.264-3.349-0.293-5.025
		c-0.039-2.229,0.124-4.465,0.031-6.691c-0.095-2.302-0.114-4.669-0.689-6.871c-0.441-1.69-1.692-3.168-2.66-4.876
		c-0.019,0.062-0.018-0.176,0.076-0.222c3.204-1.561,6.047-3.799,9.584-4.758c1.977-0.536,3.837-1.541,5.703-2.432
		c2.091-0.999,3.093-0.468,3.042,1.812c-0.116,5.19-0.379,10.379-0.398,15.569c-0.017,4.712,0.242,9.425,0.321,14.138
		c0.062,3.669,0.092,7.341,0.027,11.01c-0.089,5.027-0.397,10.052-0.393,15.078c0.003,4.306,0.231,8.617,0.529,12.914
		c0.114,1.651,0.528,3.333,1.123,4.88c0.435,1.132,1.369,2.079,2.117,3.082C300.774,150.014,301.18,150.358,301.938,151.146z"/>
	<path fill="#FFFFFF" d="M99.081,95.338c-9.838,0-19.541,0-29.366,0c-0.053-0.749-0.137-1.368-0.134-1.987
		c0.021-5.993,0.046-11.986,0.093-17.979c0.017-2.198,0.042-2.23,2.058-2.909c8.269-2.783,16.6-2.989,24.981-0.534
		c1.957,0.573,2.302,0.945,2.326,2.771c0.087,6.551,0.136,13.103,0.192,19.655C99.233,94.589,99.162,94.823,99.081,95.338z"/>
	<path fill="#FFFFFF" d="M114.443,82.454c5.803,5.863,9.557,12.649,11.156,20.495c2.762,13.546-0.461,25.636-9.408,36.182
		c-1.583,1.865-2.838,1.802-4.406-0.106c-0.862-1.048-1.061-2.269-1.069-3.586c-0.076-13.338-0.184-26.677-0.256-40.015
		c-0.014-2.475,0.065-4.951,0.141-7.425C110.679,85.431,111.996,83.684,114.443,82.454z"/>
	<path fill="#FFFFFF" d="M55.347,83.043c1.958,1.244,2.807,2.924,2.834,5.091c0.045,3.593,0.215,7.186,0.197,10.779
		c-0.062,12.141-0.195,24.281-0.267,36.422c-0.013,2.164-0.631,3.901-2.671,4.904C41.18,127.5,38.372,99.85,55.347,83.043z"/>
	<path fill="#FFFFFF" d="M668.373,83.721c0.09,4.216-1.898,7.708-4.182,10.984c-1.26,1.806-3.036,3.261-4.638,4.814
		c-0.504,0.488-1.155,0.97-1.813,1.108c-0.606,0.128-1.457-0.026-1.924-0.4c-0.33-0.265-0.312-1.12-0.239-1.684
		c0.068-0.532,0.394-1.039,0.644-1.538c1.521-3.025,1.562-6.123,0.517-9.294c-0.551-1.666-1.197-3.321-1.52-5.033
		c-0.259-1.383-0.279-2.874-0.076-4.268c0.349-2.386,2.241-3.924,4.631-4.073c4.944-0.308,8.172,2.487,8.595,7.468
		C668.42,82.44,668.373,83.082,668.373,83.721z"/>
</g>
</svg>
