<?xml version="1.0" encoding="utf-8"?>
<!-- Generator: Adobe Illustrator 16.0.0, SVG Export Plug-In . SVG Version: 6.00 Build 0)  -->
<!DOCTYPE svg PUBLIC "-//W3C//DTD SVG 1.1//EN" "http://www.w3.org/Graphics/SVG/1.1/DTD/svg11.dtd">
<svg version="1.1" id="Halloranns_xA0_Image_1_" xmlns="http://www.w3.org/2000/svg" xmlns:xlink="http://www.w3.org/1999/xlink"
	 x="0px" y="0px" width="200px" height="250px" viewBox="0 0 720 720" enable-background="new 0 0 720 720" xml:space="preserve">
<g>
	<path fill-rule="evenodd" clip-rule="evenodd" fill="#FFFFFF" d="M262.169,325.322c43.109,0,85.07,0,127.757,0
		c0.318,2.94,0.855,5.592,0.855,8.244c0.013,61.499,0.004,122.995-0.13,184.49c-0.013,5.528-0.596,11.107-1.472,16.572
		c-0.955,5.965-4.438,9.64-10.637,11.319c-35.863,9.742-71.375,8.91-106.762-2.436c-6.282-2.011-8.929-6.08-9.61-12.049
		c-0.314-2.75-0.373-5.55-0.375-8.324c-0.072-63.235-0.127-126.47-0.155-189.7C261.639,331.066,261.94,328.699,262.169,325.322z"/>
	<path fill-rule="evenodd" clip-rule="evenodd" fill="#FFFFFF" d="M389.943,301.35c-42.742,0-84.896,0-127.585,0
		c-0.229-3.25-0.594-5.94-0.583-8.63c0.091-26.038,0.202-52.076,0.405-78.11c0.074-9.555,0.18-9.69,8.941-12.64
		c35.926-12.088,72.119-12.987,108.535-2.32c8.501,2.49,10,4.106,10.106,12.041c0.38,28.46,0.59,56.93,0.834,85.391
		C390.604,298.096,390.297,299.11,389.943,301.35z"/>
	<path fill-rule="evenodd" clip-rule="evenodd" fill="#FFFFFF" d="M456.688,245.375c25.211,25.474,41.521,54.957,48.468,89.043
		c11.999,58.856-2.005,111.382-40.875,157.196c-6.876,8.104-12.332,7.832-19.144-0.458c-3.744-4.557-4.61-9.86-4.644-15.584
		c-0.331-57.953-0.798-115.9-1.114-173.849c-0.06-10.756,0.284-21.511,0.613-32.263
		C440.333,258.307,446.054,250.717,456.688,245.375z"/>
	<path fill-rule="evenodd" clip-rule="evenodd" fill="#FFFFFF" d="M199.938,247.933c8.507,5.405,12.194,12.703,12.313,22.122
		c0.197,15.609,0.933,31.218,0.855,46.828c-0.268,52.746-0.849,105.493-1.161,158.244c-0.055,9.402-2.741,16.945-11.606,21.307
		C138.385,441.082,126.187,320.952,199.938,247.933z"/>
</g>
</svg>
