<?xml version="1.0" encoding="utf-8"?>
<!-- Generator: Adobe Illustrator 16.0.0, SVG Export Plug-In . SVG Version: 6.00 Build 0)  -->
<!DOCTYPE svg PUBLIC "-//W3C//DTD SVG 1.1//EN" "http://www.w3.org/Graphics/SVG/1.1/DTD/svg11.dtd">
<svg version="1.1" id="Halloranns_xA0_Image_1_" xmlns="http://www.w3.org/2000/svg" xmlns:xlink="http://www.w3.org/1999/xlink"
	 x="0px" y="0px" width="300px" height="75px" viewBox="36.5 180.5 630 99" enable-background="new 36.5 180.5 630 99"
	 xml:space="preserve">
<path fill="#FFFFFF" d="M100.014,221.27c-11.71,0-23.06,0-34.57,0c-0.077,0.474-0.246,1-0.231,1.521
	c0.079,2.786,0.288,5.571,0.285,8.356c-0.002,2.299-0.263,4.596-0.361,6.896c-0.126,2.95-0.359,5.906-0.269,8.852
	c0.165,5.348,0.61,10.687,0.791,16.034c0.123,3.632,1.402,6.318,5.027,7.583c0.999,0.349,2.445,0.552,2.218,2.058
	c-0.194,1.293-1.614,1.254-2.529,1.371c-2.125,0.271-4.286,0.268-6.433,0.346c-0.875,0.032-1.753-0.027-2.629-0.018
	c-2.548,0.032-5.095,0.091-7.643,0.114c-2.151,0.021-4.304,0.045-6.454-0.011c-1.023-0.026-2.077-0.115-3.051-0.4
	c-0.777-0.227-0.841-0.979-0.269-1.52c0.514-0.485,1.16-0.855,1.797-1.178c1.95-0.986,2.988-2.6,3.301-4.707
	c0.175-1.182,0.376-2.376,0.377-3.564c0.004-4.878-0.067-9.756-0.102-14.635c-0.008-1.118-0.064-2.245,0.041-3.355
	c0.409-4.318,0.172-8.613-0.346-12.904c-0.077-0.633-0.115-1.275-0.125-1.914c-0.141-8.791-0.256-17.583-0.423-26.373
	c-0.03-1.592-0.188-3.191-0.421-4.767c-0.348-2.346-1.541-4.145-3.678-5.309c-0.777-0.423-2.19-0.698-1.693-1.882
	c0.258-0.613,1.557-1.05,2.414-1.104c4.147-0.263,8.304-0.477,12.459-0.501c3.916-0.024,7.833,0.195,11.75,0.337
	c1.008,0.036,2.345-0.105,2.537,1.197c0.162,1.104-1.032,1.467-1.906,1.847c-0.731,0.318-1.51,0.538-2.216,0.901
	c-1.452,0.749-2.327,1.947-2.426,3.605c-0.319,5.336-0.605,10.674,0.075,16.168c11.368,0,22.756,0,34.219,0
	c0.061-0.388,0.149-0.69,0.149-0.992c0-3.35,0.052-6.701-0.05-10.047c-0.05-1.662-0.211-3.363-0.641-4.961
	c-0.602-2.235-1.951-3.995-4.158-4.989c-0.529-0.238-0.973-0.665-1.561-1.078c1.107-1.408,2.486-1.548,3.793-1.629
	c7.42-0.461,14.846-0.485,22.27-0.074c0.873,0.048,1.752,0.173,2.601,0.378c0.318,0.077,0.785,0.488,0.779,0.738
	c-0.01,0.4-0.259,0.932-0.583,1.156c-0.581,0.402-1.28,0.644-1.949,0.904c-2.867,1.115-4.259,3.101-4.145,6.271
	c0.242,6.708,0.425,13.421,0.471,20.133c0.027,3.99-0.303,7.982-0.378,11.974c-0.096,5.109,0.117,10.234-0.199,15.327
	c-0.299,4.819,0.678,9.546,0.562,14.332c-0.021,0.875,0.072,1.761,0.194,2.63c0.438,3.118,2.04,5.298,5.094,6.359
	c0.91,0.315,2.365,0.357,2.188,1.752c-0.157,1.238-1.591,1.142-2.515,1.498c-0.58,0.225-1.256,0.279-1.888,0.277
	c-7.511-0.025-15.022-0.076-22.533-0.121c-0.24-0.002-0.516,0.07-0.713-0.023c-0.522-0.25-1.009-0.572-1.511-0.866
	c0.293-0.438,0.525-0.94,0.895-1.298c0.395-0.383,0.931-0.615,1.386-0.938c2.077-1.482,3.235-3.365,3.205-6.059
	c-0.074-6.633,0.019-13.269,0.036-19.902c0.01-4.143,0.016-8.286-0.001-12.429c-0.003-0.796-0.156-1.59-0.186-2.387
	c-0.062-1.661-0.098-3.321-0.123-4.983C100,224.01,100.014,222.752,100.014,221.27z"/>
<path fill="#FFFFFF" d="M553.698,270.791c-0.248,1.409-1.32,1.522-2.217,1.655c-1.576,0.232-3.183,0.391-4.775,0.392
	c-5.197,0.003-10.396-0.069-15.596-0.138c-1.576-0.02-3.146-0.137-4.656-1.332c0.865-0.438,1.57-0.772,2.256-1.143
	c2.586-1.396,4.201-3.412,4.092-6.504c-0.119-3.353-0.244-6.704-0.371-10.057c-0.012-0.318-0.071-0.637-0.073-0.956
	c-0.029-8.066-0.021-16.134-0.104-24.199c-0.018-1.747-0.139-3.562-0.641-5.217c-0.445-1.474-1.429-2.804-2.277-4.131
	c-0.77-1.198-0.826-1.73,0.324-2.295c3.145-1.544,5.99-3.688,9.494-4.527c1.375-0.329,2.643-1.11,3.953-1.699
	c0.875-0.393,1.713-0.881,2.612-1.2c1.74-0.616,2.285-0.271,2.549,1.619c0.179,1.265,0.185,2.553,0.349,3.821
	c0.182,1.4,0.776,1.774,2.147,1.401c0.455-0.124,0.896-0.344,1.308-0.585c3.828-2.242,8.008-2.856,12.379-3.24
	c4.508-0.396,8.258,1.279,12.078,3.063c0.776,0.362,1.53,0.915,2.1,1.554c3.877,4.352,6.291,9.355,6.851,15.235
	c0.694,7.338,0.916,14.656,0.178,22.014c-0.244,2.433-0.013,4.959,0.346,7.393c0.439,2.997,1.627,3.866,4.639,4.057
	c1.97,0.125,2.416,0.832,1.588,2.609c-1.092,2.343-2.698,3.799-5.53,3.807c-3.131,0.007-6.229,0.091-9.238-0.985
	c-4.268-1.526-7.094-4.237-7.553-8.956c-0.203-2.069-0.472-4.135-0.584-6.209c-0.295-5.42-0.693-10.832-0.627-16.271
	c0.039-3.113-0.054-6.259-0.47-9.338c-0.338-2.503-1.147-4.96-1.928-7.38c-0.588-1.83-2.1-2.862-3.947-3.111
	c-4.252-0.573-8.161,0.369-11.315,3.385c-2.438,2.331-3.457,5.255-3.109,8.7c0.259,2.535,0.265,5.102,0.3,7.654
	c0.102,7.354,0.131,14.707,0.26,22.059c0.022,1.342,0.268,2.711,0.623,4.009c0.498,1.83,1.506,3.332,3.364,4.124
	C552.948,270.071,553.327,270.503,553.698,270.791z"/>
<path fill="#FFFFFF" d="M457.247,271.397c1.07-0.532,1.867-0.873,2.611-1.309c2.356-1.383,3.901-3.297,3.815-6.189
	c-0.102-3.354-0.225-6.705-0.344-10.057c-0.014-0.399-0.092-0.797-0.094-1.195c-0.029-8.066,0.006-16.135-0.105-24.199
	c-0.045-3.364-0.313-6.716-2.916-9.369c-1.008-1.028-0.797-1.661,0.586-2.364c3.193-1.625,6.183-3.655,9.74-4.561
	c1.521-0.387,2.908-1.301,4.357-1.971c0.579-0.268,1.149-0.572,1.756-0.77c1.651-0.542,2.207-0.228,2.469,1.471
	c0.182,1.183,0.211,2.388,0.332,3.582c0.195,1.941,0.873,2.354,2.697,1.635c0.366-0.146,0.709-0.361,1.057-0.558
	c3.484-1.974,7.271-2.635,11.225-3.059c4.787-0.513,8.945,0.987,13.031,3.059c0.769,0.39,1.523,0.932,2.084,1.577
	c3.646,4.186,6.103,8.918,6.744,14.533c0.738,6.455,0.84,12.916,0.566,19.393c-0.105,2.473-0.384,4.941-0.39,7.412
	c-0.002,1.42,0.238,2.879,0.623,4.25c0.604,2.159,1.767,2.945,4.008,3.061c0.398,0.021,0.804-0.01,1.197,0.042
	c0.865,0.114,1.242,0.658,1.178,1.501c-0.139,1.783-2.469,4.49-4.291,4.684c-3.588,0.379-7.174,0.477-10.68-0.738
	c-4.379-1.518-7.266-4.25-7.733-9.07c-0.203-2.069-0.457-4.136-0.576-6.21c-0.312-5.419-0.613-10.835-0.646-16.272
	c-0.021-4.062-0.442-8.133-0.903-12.176c-0.179-1.551-0.906-3.053-1.478-4.541c-0.619-1.613-1.899-2.534-3.529-2.98
	c-5.536-1.515-12.379,1.984-14.301,7.371c-0.369,1.035-0.635,2.182-0.617,3.271c0.158,10.225,0.371,20.447,0.617,30.669
	c0.033,1.347,0.232,2.71,0.537,4.022c0.469,2.025,1.49,3.684,3.529,4.555c0.473,0.201,0.836,0.653,1.203,0.954
	c-0.406,1.45-1.564,1.519-2.543,1.654c-1.58,0.218-3.188,0.337-4.783,0.337c-4.957-0.002-9.916-0.077-14.875-0.131
	C460.729,272.692,459.06,272.607,457.247,271.397z"/>
<path fill="#FFFFFF" d="M188.561,268.993c0.428,1.541-0.548,2.25-1.545,2.701c-2.173,0.984-4.36,2.02-6.84,1.991
	c-0.4-0.005-0.819-0.059-1.196,0.036c-3.628,0.916-5.898-1.1-7.958-3.621c-0.704-0.863-1.436-1.707-2.211-2.506
	c-0.615-0.635-1.32-0.723-2.165-0.282c-2.193,1.142-4.45,2.158-6.637,3.311c-6.554,3.452-13.355,4.241-19.987,0.751
	c-4.157-2.188-7.324-5.668-7.66-10.846c-0.021-0.319-0.044-0.643-0.116-0.953c-1.323-5.732,0.659-10.718,4.19-14.912
	c2.826-3.355,6.775-4.894,11.432-5.012c5.008-0.127,10.087,0.285,15.041-0.937c0.618-0.152,1.266-0.179,1.896-0.286
	c2.098-0.361,2.821-0.95,2.963-3.117c0.334-5.1-0.111-10.228-2.725-14.651c-3.477-5.884-12.227-7.746-17.543-0.762
	c-1.167,1.533-1.272,3.235-0.13,4.911c0.358,0.527,0.697,1.078,0.968,1.654c1.049,2.227,0.639,4.68-1.157,6.345
	c-0.931,0.863-1.963,1.647-3.045,2.312c-2.706,1.665-7.626,0.322-8.629-3.331c-0.664-2.42-0.644-4.654,0.526-6.701
	c4.397-7.699,10.463-12.959,19.853-13.469c5.29-0.288,10.361,0.556,15.344,2.119c4.295,1.347,6.792,4.726,8.625,8.524
	c1.341,2.778,2.543,5.691,2.54,8.912c-0.001,0.705,0.167,1.443,0.413,2.109c1.072,2.916,1.147,5.943,1.079,8.988
	c-0.094,4.236-0.282,8.473-0.308,12.709c-0.019,3.036,0.129,6.074,0.274,9.107c0.038,0.783,0.266,1.584,0.546,2.322
	c0.413,1.088,1.101,1.93,2.383,2.107C187.395,268.604,187.988,268.836,188.561,268.993z M167.681,252.774
	c0-2.646,0.039-4.564-0.01-6.479c-0.061-2.399-0.653-3.015-3.045-2.823c-3.43,0.274-6.786,0.966-9.993,2.278
	c-1.476,0.604-2.448,1.627-3.177,3.067c-1.709,3.383-1.79,6.909-1.18,10.515c0.219,1.294,0.884,2.41,2.091,3.068
	c2.923,1.596,5.992,2.205,9.211,1.06c1.422-0.507,2.767-1.231,4.147-1.856c1.646-0.746,2.398-2.007,2.264-3.822
	C167.849,255.872,167.752,253.958,167.681,252.774z"/>
<path fill="#FFFFFF" d="M449.644,269.186c-0.012,1.651-1.157,2.28-2.299,2.832c-3.084,1.49-6.432,1.955-9.778,1.889
	c-2.365-0.047-4.002-1.797-5.468-3.539c-0.717-0.854-1.387-1.752-2.149-2.56c-0.707-0.748-1.504-1.024-2.562-0.454
	c-2.174,1.173-4.43,2.191-6.619,3.336c-6.481,3.387-13.196,4.102-19.772,0.743c-4.049-2.067-7.057-5.444-7.693-10.313
	c-0.217-1.663-0.705-3.361-0.545-4.991c0.865-8.788,4.988-14.653,13.732-16.427c2.84-0.574,5.883-0.062,8.817-0.258
	c3.576-0.238,7.146-0.633,10.703-1.088c1.82-0.234,2.435-0.975,2.584-2.896c0.394-5.022-0.266-9.903-2.436-14.485
	c-2.351-4.964-9.576-7.067-14.232-4.122c-1.321,0.836-2.551,1.931-3.557,3.13c-1.164,1.391-1.301,3.047-0.213,4.666
	c0.399,0.595,0.793,1.207,1.096,1.855c1.068,2.298,0.633,4.585-1.199,6.34c-0.576,0.55-1.203,1.057-1.85,1.522
	c-2.607,1.882-5.228,1.966-7.805,0.283c-1.781-1.162-2.984-4.628-2.318-7.117c0.346-1.299,0.779-2.647,1.504-3.758
	c3.783-5.794,8.568-10.426,15.652-11.729c4.575-0.841,9.225-0.763,13.797,0.34c1.629,0.395,3.256,0.809,4.865,1.28
	c4.163,1.221,6.622,4.404,8.532,7.959c1.504,2.797,2.604,5.827,2.812,9.084c0.051,0.795,0.108,1.623,0.373,2.363
	c1.682,4.737,1.158,9.604,1.055,14.476c-0.117,5.427-0.16,10.866,0.115,16.283c0.192,3.761,0.713,4.038,4.256,4.998
	C449.19,268.872,449.315,268.989,449.644,269.186z M410.755,255.706c0.023,0,0.045,0.002,0.068,0.004c0,0.318-0.011,0.639,0,0.958
	c0.143,4.401,1.414,5.89,5.703,7.019c4.303,1.131,7.807-0.744,11.229-2.864c1.021-0.63,1.211-1.831,1.174-2.997
	c-0.116-3.828-0.25-7.656-0.36-11.484c-0.072-2.434-0.604-3.092-2.998-2.85c-2.371,0.238-4.703,0.853-7.062,1.236
	c-4.631,0.756-6.78,3.796-7.528,8.118C410.817,253.784,410.825,254.75,410.755,255.706z"/>
<path fill="#FFFFFF" d="M269.912,242.831c0.281-2.538,0.386-5.111,0.875-7.607c1.833-9.354,7.707-15.503,15.922-19.77
	c4.451-2.312,9.296-3.062,14.152-3.114c4.394-0.047,8.724,1.054,12.669,3.172c3.623,1.947,6.762,4.539,9.516,7.59
	c0.428,0.473,0.848,0.975,1.16,1.524c4.563,8.012,7.029,16.444,4.981,25.729c-0.307,1.395-0.725,2.8-1.336,4.086
	c-2.803,5.914-6.923,10.763-12.438,14.278c-4.608,2.938-9.661,4.552-15.233,3.881c-3.409-0.41-6.828-0.777-10.21-1.351
	c-1.374-0.233-2.851-0.708-3.956-1.516c-3.283-2.398-6.637-4.781-9.521-7.62c-2.674-2.633-4.563-5.95-5.058-9.846
	c-0.081-0.634-0.104-1.316-0.365-1.878C269.945,247.969,270.068,245.408,269.912,242.831z M316.167,252.614
	c-0.409-4.229-1.125-8.285-2.068-12.353c-1.307-5.629-3.596-10.74-7.062-15.324c-0.957-1.266-2.125-2.385-3.271-3.492
	c-1.729-1.67-3.959-2.417-6.221-2.916c-2.866-0.631-5.976,0.867-7.501,4.006c-1.488,3.063-2.603,6.341-3.559,9.618
	c-0.594,2.035-0.818,4.248-0.805,6.379c0.035,5.268,1.455,10.24,3.705,14.994c2.497,5.276,6.32,9.412,11.071,12.664
	c3.445,2.359,7.289,2.15,10.25-0.27c1.959-1.602,3.487-3.58,4.099-6.057C315.396,257.483,315.724,255.034,316.167,252.614z"/>
<path fill="#FFFFFF" d="M637.19,273.346c-4.729,0.248-9.078-1.15-13.334-2.789c-5.132-1.977-8.289-5.812-9.709-11.105
	c-1.216-4.526,1.19-9.592,5.381-11.309c4.184-1.713,9.231,1.365,9.793,5.826c0.313,2.488-0.258,4.57-1.89,6.426
	c-0.473,0.537-0.94,1.105-1.27,1.734c-1.023,1.951-0.5,3.993,1.418,4.891c2.234,1.045,4.531,2.007,6.883,2.739
	c3.264,1.017,6.531,0.519,9.603-0.819c6.934-3.021,7.174-10.955,2.764-14.979c-2.764-2.521-5.685-4.5-9.488-5.256
	c-2.543-0.506-5.014-1.609-7.375-2.742c-2.729-1.308-5.395-2.798-7.918-4.466c-4.074-2.693-6.67-6.562-7.026-11.44
	c-0.162-2.198,0.539-4.624,1.43-6.697c1.369-3.186,3.473-5.935,6.82-7.422c0.364-0.162,0.709-0.372,1.047-0.582
	c7.789-4.83,16.106-4.676,24.475-2.201c6.527,1.931,9.818,7.022,11.344,13.373c0.193,0.801-0.006,1.752-0.221,2.582
	c-0.236,0.918-0.666,1.794-1.07,2.661c-1.771,3.81-6.155,5.322-9.854,3.242c-2.512-1.415-4.406-3.385-4.65-6.542
	c-0.137-1.786,0.334-3.141,1.918-4.035c0.625-0.354,1.283-0.654,1.892-1.035c1.37-0.86,1.729-2.038,0.998-3.471
	c-0.755-1.48-1.935-2.58-3.505-3.113c-1.809-0.616-3.649-1.176-5.518-1.57c-0.811-0.171-1.777-0.026-2.574,0.257
	c-1.498,0.531-2.955,1.205-4.373,1.93c-2.942,1.505-4.053,4.195-4.356,7.271c-0.185,1.859,0.645,3.498,1.961,4.721
	c1.213,1.127,2.582,2.18,4.055,2.918c4.779,2.395,9.502,4.918,14.65,6.517c3.715,1.153,6.985,3.154,9.75,5.913
	c2.646,2.641,3.912,5.793,3.198,9.553c-1.715,9.057-7.424,14.708-15.813,17.652C643.681,273.008,640.347,272.922,637.19,273.346z"/>
<path fill="#FFFFFF" d="M345.438,257.665c0.003-3.666,0.107-7.338-0.03-11c-0.107-2.862-0.625-5.708-0.765-8.571
	c-0.172-3.591-0.194-7.191-0.182-10.788c0.008-2.737-0.672-5.182-2.369-7.371c-1.225-1.578-1.072-1.9,0.605-2.934
	c3.196-1.971,6.354-3.972,10.155-4.683c1.058-0.198,2.021-0.92,3.015-1.43c0.424-0.218,0.785-0.657,1.221-0.735
	c0.976-0.174,2.103-0.505,2.937-0.179c0.975,0.382,0.758,1.611,0.676,2.581c-0.16,1.911-0.295,3.824-0.422,5.737
	c-0.037,0.556-0.168,1.179,0.024,1.66c0.242,0.607,0.668,1.327,1.209,1.571c0.41,0.185,1.299-0.128,1.666-0.513
	c1.158-1.21,2.09-2.634,3.256-3.835c1.604-1.655,3.25-3.291,5.039-4.736c2.701-2.183,5.927-2.411,9.119-1.571
	c3.392,0.893,4.729,3.791,5.695,6.837c0.238,0.753,0.25,1.576,0.414,2.358c0.813,3.906-0.799,6.899-3.676,9.285
	c-3.699,3.068-10.896,2.16-12.115-4.701c-0.068-0.393-0.144-0.788-0.266-1.165c-0.414-1.265-1.216-1.691-2.355-1.084
	c-0.832,0.442-1.623,1.049-2.275,1.731c-3.147,3.298-4.856,7.245-5.215,11.801c-0.166,2.146-0.463,4.283-0.692,6.425
	c-0.052,0.476-0.115,0.958-0.093,1.433c0.289,6.145,0.5,12.296,0.935,18.432c0.201,2.854,1.168,5.465,3.914,7.035
	c0.465,0.265,1.067,1.181,0.934,1.417c-0.299,0.531-0.971,1.038-1.578,1.179c-3.369,0.782-6.789,0.871-10.244,0.662
	c-3.743-0.227-7.5-0.268-11.25-0.377c-0.477-0.015-1.004,0.175-1.424,0.027c-0.535-0.189-0.983-0.625-1.471-0.954
	c0.312-0.418,0.537-1.043,0.953-1.222c3.674-1.574,4.457-4.746,4.643-8.244C345.497,260.386,345.438,259.024,345.438,257.665z"/>
<path fill="#FFFFFF" d="M236.531,194.576c0.235-0.255,0.482-0.732,0.867-0.909c3.61-1.655,6.83-4.116,10.841-4.977
	c1.596-0.342,3.061-1.326,4.563-2.063c0.868-0.426,1.834-1.115,2.631-0.313c0.522,0.525,0.766,1.545,0.762,2.342
	c-0.045,9.587-0.35,19.177-0.173,28.758c0.085,4.629,0.591,9.275,0.132,13.883c-0.668,6.708-0.388,13.412-0.368,20.119
	c0.01,3.505,0.208,7.021,0.561,10.51c0.19,1.882,0.738,3.77,1.41,5.545c0.369,0.975,1.321,1.734,2.032,2.572
	c0.378,0.445,0.805,0.85,1.379,1.449c-0.741,0.314-1.153,0.63-1.579,0.648c-3.668,0.163-7.407,0.762-10.991,0.266
	c-3.851-0.531-6.444-3.292-7.704-7.085c-0.807-2.429-0.383-4.909-0.327-7.378c0.036-1.589-0.014-3.181-0.046-4.771
	c-0.046-2.316-0.151-4.633-0.158-6.949c-0.016-5.915,0.008-11.831,0.019-17.747c0.004-2.236,0.052-4.473,0.014-6.709
	c-0.039-2.314-0.202-4.627-0.23-6.941c-0.032-2.63,0.039-5.261,0.037-7.892c-0.003-4.094,0.093-8.221-3.263-11.357
	c-0.167-0.156-0.262-0.394-0.374-0.603C236.531,194.912,236.549,194.819,236.531,194.576z"/>
<path fill="#FFFFFF" d="M198.185,194.782c0.373-0.419,0.612-0.914,0.994-1.082c3.562-1.57,6.672-4.061,10.611-4.909
	c1.748-0.376,3.314-1.542,5.017-2.211c0.753-0.296,1.864-0.605,2.403-0.263c0.544,0.346,0.799,1.49,0.802,2.285
	c0.013,3.754-0.141,7.508-0.167,11.263c-0.039,5.67-0.07,11.342-0.009,17.012c0.037,3.43,0.419,6.86,0.355,10.284
	c-0.124,6.629-0.594,13.252-0.651,19.879c-0.041,4.707,0.312,9.42,0.59,14.125c0.089,1.502,0.423,3.005,0.788,4.473
	c0.469,1.887,1.205,3.639,3.061,4.671c0.346,0.192,0.505,0.722,0.829,1.214c-0.474,0.252-0.799,0.566-1.138,0.582
	c-3.748,0.172-7.504,0.494-11.246,0.375c-3.249-0.105-7.167-4.193-7.852-7.855c-0.259-1.387-0.196-2.844-0.192-4.268
	c0.005-1.758,0.316-3.539,0.121-5.269c-0.797-7.032,0.111-14.06-0.1-21.087c-0.11-3.666-0.163-7.334-0.203-11
	c-0.061-5.664-0.065-11.327-0.146-16.99c-0.023-1.592-0.184-3.188-0.371-4.771c-0.241-2.043-1.044-3.838-2.57-5.278
	C198.774,195.643,198.53,195.227,198.185,194.782z"/>
<path fill="#FFFFFF" d="M612.909,199.989c0.278,4.604-1.99,8.338-4.418,11.888c-1.375,2.009-3.359,3.613-5.146,5.32
	c-0.557,0.53-1.319,0.952-2.062,1.155c-1.47,0.4-2.508-0.771-2.045-2.214c0.192-0.605,0.471-1.189,0.76-1.758
	c1.645-3.258,1.633-6.588,0.537-10.001c-0.635-1.972-1.314-3.948-1.701-5.975c-0.248-1.296-0.182-2.72,0.062-4.027
	c0.453-2.416,2.464-3.879,4.884-4.244c5.301-0.798,9.164,4.114,9.129,7.939C612.903,198.711,612.909,199.35,612.909,199.989z"/>
</svg>
